<?xml version="1.0" standalone="no"?>
<!DOCTYPE svg PUBLIC "-//W3C//DTD SVG 20010904//EN"
 "http://www.w3.org/TR/2001/REC-SVG-20010904/DTD/svg10.dtd">
<svg version="1.0" xmlns="http://www.w3.org/2000/svg"
 width="500.000000pt" height="500.000000pt" viewBox="0 0 500.000000 500.000000"
 preserveAspectRatio="xMidYMid meet">
<metadata>
Created by potrace 1.11, written by Peter Selinger 2001-2013
</metadata>
<g transform="translate(0.000000,500.000000) scale(0.100000,-0.100000)"
fill="#000000" stroke="none">
<path d="M2733 4994 c-13 -3 -32 -17 -43 -31 -18 -23 -24 -25 -64 -19 -32 5
-54 3 -75 -8 -16 -9 -43 -16 -58 -17 -24 0 -25 -1 -8 -8 11 -5 59 -9 107 -9
68 0 92 3 110 17 13 9 49 27 80 39 53 20 61 20 104 7 27 -8 59 -27 75 -44 15
-17 37 -31 49 -31 11 0 29 -6 40 -12 15 -10 22 -10 31 -1 19 19 3 40 -38 48
-21 3 -45 13 -53 20 -40 36 -188 64 -257 49z"/>
<path d="M3395 4920 c-44 -11 -85 -29 -85 -36 0 -3 36 -3 80 1 49 4 104 2 147
-5 113 -20 131 -8 35 23 -84 27 -123 31 -177 17z"/>
<path d="M2357 4893 c-4 -3 -49 -7 -99 -8 -77 -1 -103 -6 -153 -29 -72 -33
-95 -52 -95 -81 0 -28 -17 -43 -58 -51 -17 -4 -38 -17 -47 -31 -9 -13 -27 -29
-41 -35 -13 -6 -24 -14 -24 -18 0 -11 64 1 80 15 8 7 37 22 63 33 35 16 51 30
62 55 7 18 34 52 59 75 42 38 50 42 99 42 29 0 58 -5 64 -11 8 -8 25 -9 50 -4
21 5 48 7 61 6 24 -3 30 17 10 37 -14 14 -22 15 -31 5z"/>
<path d="M3130 4809 c-29 -28 -59 -68 -67 -88 -24 -59 -41 -71 -93 -71 -32 0
-50 -5 -53 -14 -8 -19 1 -26 35 -26 63 0 140 55 192 138 24 39 49 103 42 109
-2 2 -27 -19 -56 -48z"/>
<path d="M3470 4747 c-14 -7 -33 -29 -43 -49 -16 -33 -17 -40 -3 -72 21 -51
40 -47 32 7 -8 53 17 92 65 102 23 5 28 9 18 16 -19 12 -40 11 -69 -4z"/>
<path d="M2656 4698 c-35 -54 -67 -145 -73 -206 -5 -49 -14 -77 -36 -111 -39
-60 -78 -101 -94 -101 -18 0 -17 93 3 150 14 41 14 45 -2 57 -21 15 -46 17
-59 4 -10 -9 -84 -12 -217 -8 -59 2 -70 -1 -93 -23 l-27 -25 5 30 c3 17 9 63
13 103 7 83 -2 102 -47 102 -36 0 -39 -12 -48 -167 -4 -79 -10 -118 -18 -121
-7 -2 -13 4 -13 13 0 29 -30 76 -63 95 -35 22 -127 27 -170 11 -32 -12 -44
-47 -24 -69 13 -15 14 -20 1 -36 -55 -76 49 -170 151 -136 42 14 105 65 105
86 0 8 4 14 9 14 5 0 13 -25 16 -55 5 -39 13 -59 26 -66 22 -11 59 4 59 24 0
21 50 121 72 145 12 12 33 22 47 22 25 0 25 0 -11 -37 -101 -106 -90 -213 22
-213 25 0 55 7 67 15 35 24 56 95 51 169 -4 65 -4 66 26 76 16 5 30 10 31 10
2 0 -4 -19 -12 -42 -21 -61 -12 -126 22 -155 53 -46 141 -21 180 50 11 21 22
37 25 37 3 0 11 -20 18 -45 15 -56 43 -86 72 -78 19 5 21 11 16 42 -14 84 -18
211 -7 261 6 29 25 82 42 118 25 52 29 66 18 73 -26 17 -68 10 -83 -13z m-792
-259 c33 -39 26 -50 -24 -37 -34 9 -38 13 -30 29 13 24 -2 32 -41 24 -22 -5
-29 -4 -25 4 4 6 27 11 51 11 36 0 48 -5 69 -31z m-23 -65 c52 -9 58 -22 25
-51 -33 -28 -77 -30 -100 -4 -14 15 -15 23 -5 45 8 17 18 25 27 21 7 -3 31 -8
53 -11z m386 -64 c-6 -71 -24 -102 -43 -75 -8 11 -9 26 -4 45 9 30 41 90 49
90 2 0 1 -27 -2 -60z"/>
<path d="M1246 4669 c-30 -24 -70 -96 -81 -149 l-8 -35 -13 30 c-7 17 -13 41
-14 55 0 14 -4 30 -8 37 -12 19 -55 25 -74 11 -16 -12 -16 -19 -3 -78 18 -85
45 -161 83 -236 37 -74 54 -89 80 -75 17 9 18 15 9 57 -8 32 -8 64 0 110 16
94 81 249 97 233 12 -12 26 -145 26 -249 0 -63 4 -121 9 -128 4 -8 19 -12 32
-10 20 2 27 13 40 63 9 33 28 83 42 110 26 52 102 145 118 145 15 0 10 -60
-12 -156 -25 -103 -21 -153 16 -190 23 -23 71 -41 82 -31 3 3 -4 18 -16 33
-28 35 -27 80 4 185 29 98 32 170 9 193 -56 57 -173 12 -215 -83 -21 -46 -29
-38 -29 29 0 69 -19 123 -48 139 -34 18 -97 13 -126 -10z"/>
<path d="M3732 4664 c-20 -9 -3 -24 27 -24 16 0 48 -7 71 -15 55 -19 61 -13
16 14 -36 23 -91 35 -114 25z"/>
<path d="M2427 4612 c-23 -25 -21 -59 3 -72 17 -9 25 -6 51 19 17 17 29 39 27
48 -5 26 -59 29 -81 5z"/>
<path d="M3967 4536 c-48 -18 -54 -24 -32 -32 10 -4 46 -2 80 5 54 11 67 11
93 -3 33 -17 64 -61 86 -122 l15 -39 0 43 c2 95 -53 154 -148 159 -32 2 -73
-3 -94 -11z"/>
<path d="M3298 4518 c-13 -19 -23 -21 -70 -19 -47 2 -60 -2 -86 -24 -16 -14
-43 -47 -58 -73 -37 -65 -84 -123 -94 -117 -4 3 -4 22 1 42 14 63 11 129 -8
144 -9 8 -38 14 -66 14 -46 0 -52 -3 -89 -45 l-40 -45 7 47 c7 45 6 48 -20 60
-25 11 -29 10 -46 -11 -26 -32 -26 -131 1 -189 31 -69 63 -67 89 5 19 52 69
123 87 123 12 0 13 -7 7 -37 -4 -21 -8 -58 -8 -82 0 -57 34 -87 89 -77 33 6
53 27 92 94 1 2 15 -11 32 -28 36 -36 77 -39 115 -10 l26 21 15 -34 c17 -41
64 -63 91 -43 16 12 16 15 1 44 -20 39 -20 70 1 159 13 59 14 75 3 87 -18 23
-55 20 -72 -6z m-38 -60 c-1 -20 -64 -131 -77 -136 -19 -5 -27 62 -11 94 19
40 88 73 88 42z"/>
<path d="M3560 4441 c0 -5 7 -14 16 -22 9 -8 13 -21 10 -35 -3 -12 -3 -30 0
-38 9 -23 34 -20 34 5 0 11 4 29 10 39 11 20 3 28 -42 48 -16 6 -28 8 -28 3z"/>
<path d="M4210 4295 c0 -13 58 -45 83 -45 22 0 63 -36 76 -68 12 -29 5 -98
-15 -147 -7 -18 -6 -19 11 -5 26 22 45 73 45 124 0 72 -54 121 -158 144 -32 8
-42 7 -42 -3z"/>
<path d="M3633 4240 c7 -51 31 -90 57 -90 18 0 17 5 -13 64 -17 36 -36 65 -41
65 -5 1 -6 -17 -3 -39z"/>
<path d="M1393 4170 c-13 -5 -37 -29 -55 -54 -31 -44 -32 -45 -59 -30 -36 18
-132 18 -196 -1 -52 -15 -137 -81 -148 -114 -4 -14 -20 -19 -70 -24 -35 -3
-107 -21 -159 -38 l-94 -32 -36 22 c-47 29 -56 64 -25 97 25 27 88 49 191 66
70 11 105 35 94 63 -11 28 -53 36 -141 25 -133 -17 -226 -54 -283 -113 -64
-67 -49 -150 37 -199 23 -13 41 -26 41 -29 0 -4 -19 -19 -41 -34 -58 -38 -128
-104 -145 -136 -21 -42 -18 -95 7 -118 55 -51 192 -47 315 9 154 69 215 191
138 271 -15 16 -26 31 -23 33 6 6 149 56 160 56 5 0 9 -21 9 -47 0 -111 81
-189 195 -187 63 1 107 17 139 53 26 28 32 27 40 -10 14 -69 88 -129 161 -129
81 0 92 31 45 124 -17 32 -30 73 -30 91 0 18 14 85 30 148 17 64 30 139 30
167 0 49 -2 52 -35 66 -39 16 -60 17 -92 4z m-122 -140 c14 0 -96 -210 -131
-252 -24 -27 -31 -31 -47 -22 -43 26 -47 149 -6 210 26 40 121 79 161 68 8 -2
18 -4 23 -4z m-643 -282 c41 -41 -50 -137 -165 -172 -62 -19 8 88 101 156 44
32 47 33 64 16z"/>
<path d="M3435 4170 c-11 -4 -33 -26 -50 -49 -23 -32 -35 -40 -50 -35 -11 3
-50 8 -87 11 -129 10 -247 -54 -284 -155 -39 -105 -202 -298 -217 -258 -3 8
-2 28 2 44 5 16 16 74 26 130 15 94 15 103 0 136 -24 50 -90 80 -175 80 -89
-1 -136 -27 -207 -114 -31 -38 -59 -68 -61 -66 -2 2 2 41 9 85 12 77 12 83 -7
102 -29 28 -87 36 -119 15 -45 -29 -60 -72 -59 -171 0 -107 21 -183 66 -251
27 -40 39 -50 66 -52 44 -4 78 19 92 65 20 62 49 113 113 201 88 121 111 110
83 -42 -29 -165 -19 -208 59 -245 25 -11 45 -22 45 -24 0 -1 -25 0 -56 1 -31
2 -147 -2 -258 -9 -110 -6 -241 -13 -291 -15 -49 -1 -112 -7 -140 -14 -27 -6
-117 -24 -200 -39 -82 -16 -202 -41 -265 -56 -63 -16 -122 -28 -130 -28 -26 2
-161 -38 -199 -57 -20 -11 -58 -24 -86 -31 -169 -40 -350 -121 -390 -174 -55
-71 -128 -273 -165 -453 -49 -244 -67 -624 -40 -892 26 -261 104 -556 180
-683 33 -55 46 -67 111 -101 93 -48 174 -79 294 -111 108 -29 170 -31 350 -9
72 8 147 12 167 9 42 -7 63 2 109 47 27 27 34 30 37 16 3 -14 8 -15 32 -7 16
6 50 14 77 18 46 6 48 8 46 36 -2 28 -1 29 12 11 8 -11 15 -23 15 -26 0 -4 26
-10 58 -13 31 -4 74 -10 95 -13 l37 -7 0 127 c0 105 -2 126 -15 126 -8 0 -15
-4 -15 -10 0 -17 -28 -11 -32 7 -2 13 -10 7 -27 -22 -25 -41 -81 -110 -81
-100 0 3 17 38 37 78 21 39 43 86 50 102 12 28 12 29 -3 10 -9 -11 -34 -53
-56 -93 -22 -40 -42 -71 -44 -70 -2 2 -4 34 -5 71 -2 67 -19 86 -19 21 0 -19
-5 -34 -11 -34 -6 0 -9 9 -6 20 3 10 -2 25 -10 31 -18 15 -23 9 -64 -78 -32
-69 -56 -94 -45 -47 4 16 27 74 52 128 24 55 42 101 40 103 -6 6 -72 -128 -97
-197 l-24 -65 -6 45 c-3 25 -7 41 -8 35 -2 -5 -7 3 -12 20 -4 16 -6 39 -3 52
20 77 -65 -49 -97 -145 -12 -35 -23 -61 -26 -58 -8 8 23 99 63 185 20 43 27
68 18 60 -18 -15 -56 -88 -73 -141 -18 -56 -35 -60 -26 -7 6 45 100 245 135
289 l20 25 2 -90 c2 -80 3 -76 8 45 l5 135 80 0 80 0 5 -122 c6 -149 17 -171
14 -30 -2 123 3 157 25 158 9 1 5 4 -9 9 -14 4 -103 8 -198 9 l-173 1 18 31
c10 18 41 56 68 85 l51 54 114 2 115 1 -112 10 c-101 8 -113 11 -113 28 0 17
8 19 73 19 39 0 79 5 87 10 10 7 -12 10 -72 10 l-88 0 0 50 0 50 103 1 c84 1
94 3 57 10 -25 4 -78 8 -117 8 -45 1 -73 5 -73 12 0 7 38 10 115 8 63 -1 118
1 122 4 3 4 -41 7 -99 7 l-105 0 -6 37 c-4 20 -4 40 -1 45 3 4 49 9 102 9 l97
2 -65 9 c-36 5 -79 7 -97 4 -33 -5 -43 6 -43 45 0 10 -5 19 -10 19 -7 0 -9
-25 -4 -73 5 -60 4 -75 -10 -86 -17 -14 -22 -51 -7 -51 17 0 22 -35 15 -111
-6 -75 -8 -79 -64 -147 -109 -133 -102 -105 -90 -378 6 -132 12 -264 15 -295
l5 -57 -53 -6 c-28 -3 -102 -5 -164 -5 -128 0 -114 -12 -139 118 -14 77 -14
85 0 93 9 5 16 17 16 26 0 32 31 62 98 97 46 23 60 34 45 35 -27 0 -30 25 -7
58 12 18 13 22 1 22 -8 0 -22 -9 -33 -21 -15 -16 -16 -24 -6 -39 10 -17 6 -22
-31 -42 -29 -16 -50 -38 -67 -71 -14 -26 -28 -47 -31 -47 -10 0 -29 118 -22
136 3 8 -1 34 -10 57 -8 23 -20 79 -27 124 -11 81 -10 84 14 126 15 24 26 52
26 63 0 13 -7 8 -22 -18 -12 -21 -25 -38 -29 -38 -4 0 -10 34 -14 76 -7 73
-18 87 -28 34 -2 -15 -5 -5 -7 25 l-2 50 -9 -40 c-4 -22 -6 -58 -4 -80 4 -36
4 -37 -5 -10 -25 85 -40 563 -23 751 l7 79 11 -95 11 -95 8 100 c29 363 78
495 211 563 44 23 39 27 -14 12 l-33 -9 6 42 c14 89 58 243 86 302 l29 61 153
36 c84 21 205 46 269 57 64 12 125 24 134 27 16 7 17 2 11 -42 -12 -81 -17
-93 -39 -97 -21 -4 -21 -4 1 -6 20 -1 22 -5 18 -33 -3 -18 -8 -54 -11 -80 -5
-38 -10 -48 -28 -51 l-22 -4 23 -2 c23 -1 26 -10 16 -59 -5 -24 -12 -32 -33
-34 -14 -2 229 -3 541 -3 603 0 608 0 580 -45 -17 -28 -16 -46 3 -30 8 7 15
26 15 42 l0 30 83 -7 c71 -6 85 -10 104 -32 25 -31 35 -72 26 -114 -5 -25 -3
-31 8 -27 18 6 14 91 -7 132 -8 16 -14 31 -14 32 0 4 27 2 320 -26 113 -11
270 -29 349 -40 156 -21 167 -23 159 -15 -5 6 -399 71 -483 79 -86 10 -116 16
-110 26 3 5 1 11 -4 14 -4 3 -12 45 -15 93 -9 112 -13 143 -27 226 -6 38 -9
70 -7 72 4 5 249 -40 306 -56 l42 -12 0 -84 c0 -123 0 -123 123 -123 67 0 107
4 115 12 7 7 12 30 13 53 0 38 2 35 29 -44 41 -116 67 -251 51 -260 -6 -4 32
-15 85 -25 53 -9 98 -15 100 -13 9 8 -38 203 -67 283 -16 44 -29 83 -29 87 0
3 26 -3 59 -14 58 -20 58 -20 94 -97 36 -79 80 -208 92 -275 8 -40 3 -43 -42
-27 -27 10 -26 9 7 -17 116 -92 189 -239 240 -479 16 -74 19 -82 21 -49 4 79
17 -62 19 -205 2 -170 17 -274 19 -132 l1 92 55 0 55 0 0 -72 c0 -167 -47
-504 -72 -520 -7 -4 -32 -13 -55 -20 -34 -10 -42 -17 -47 -42 -3 -16 -4 -31
-1 -34 3 -3 5 1 5 9 0 13 88 55 96 46 6 -6 -75 -234 -107 -302 -21 -44 -42
-73 -63 -86 -17 -10 -34 -19 -38 -19 -4 0 4 25 18 55 27 63 84 249 83 274 0 9
-9 -13 -19 -49 -32 -109 -86 -241 -95 -233 -4 5 -5 2 -1 -4 4 -7 2 -21 -4 -30
-11 -17 -11 -17 -6 0 7 23 -6 22 -22 -3 -7 -11 -17 -20 -24 -20 -8 0 -9 25 -3
93 5 50 9 146 10 212 1 66 5 147 9 180 7 59 7 60 -23 78 -17 10 -36 27 -41 38
-6 10 -16 19 -23 19 -7 0 -17 9 -24 19 -12 19 -66 32 -128 32 -16 -1 -41 0
-55 0 -78 4 -101 2 -111 -8 -7 -7 5 -9 42 -5 35 3 50 1 45 -6 -3 -5 -22 -10
-42 -10 -20 0 -40 -6 -45 -13 -7 -11 -9 -10 -9 4 0 12 -8 17 -32 17 -17 0 -28
-3 -25 -7 8 -8 -11 -33 -25 -33 -6 0 -5 7 2 15 7 8 9 15 5 15 -4 0 -2 7 5 15
7 8 23 15 37 15 15 0 22 4 17 11 -8 14 -54 2 -79 -21 -11 -10 -36 -20 -55 -22
-31 -3 -35 -6 -32 -30 4 -42 -15 -42 -66 -1 -26 22 -61 49 -79 61 l-31 22 2
100 c1 55 -1 121 -4 147 l-6 48 -8 -37 -8 -38 -219 0 c-121 0 -219 -3 -219 -7
0 -11 132 -18 298 -16 80 1 142 -3 142 -8 0 -5 -94 -9 -220 -9 -140 0 -220 -4
-220 -10 0 -6 53 -10 138 -10 75 0 174 -3 220 -7 l82 -6 0 -33 0 -34 -185 0
c-117 0 -185 -4 -185 -10 0 -6 66 -10 179 -10 110 0 182 -4 186 -10 3 -6 4
-18 1 -28 -5 -15 -24 -17 -168 -19 -201 -2 -188 -2 -188 -10 0 -5 80 -8 177
-7 187 1 209 -3 248 -46 11 -12 36 -31 55 -41 19 -10 44 -26 55 -34 17 -14 18
-17 5 -25 -9 -6 -156 -10 -340 -11 -179 -1 -307 -5 -285 -8 l40 -6 9 -93 8
-94 -35 -36 c-38 -40 -112 -163 -123 -206 -4 -18 -2 -28 9 -32 9 -3 13 -13 10
-25 -10 -38 15 -67 63 -71 55 -4 57 0 52 143 -3 108 -9 123 -37 97 -7 -7 1 15
19 49 18 35 34 63 36 63 2 0 0 -77 -3 -170 -4 -112 -3 -170 4 -170 11 0 28
314 18 330 -4 6 -3 55 1 110 l7 100 83 0 c82 0 108 -10 85 -33 -6 -6 -11 -18
-11 -27 0 -9 -12 -27 -26 -41 -42 -40 -116 -165 -112 -191 3 -19 8 -14 32 32
37 71 89 150 98 150 20 0 4 -52 -36 -116 -69 -111 -89 -155 -92 -204 -1 -25
-5 -65 -9 -90 l-6 -45 63 -20 c58 -18 83 -20 317 -15 191 4 255 8 259 18 3 9
-14 12 -62 12 -70 0 -79 8 -51 44 12 16 15 61 15 232 0 117 -4 215 -9 218 -11
7 -41 -27 -86 -97 -20 -32 -43 -61 -51 -64 -8 -3 -14 -19 -14 -38 0 -20 -6
-35 -15 -38 -11 -5 -12 -1 -5 19 15 37 12 46 -10 39 -18 -6 -19 -5 -5 22 8 15
15 33 15 38 -1 16 -37 -34 -97 -135 l-57 -95 -9 44 c-5 25 -5 65 0 96 5 29 6
61 2 72 -4 11 -4 62 -1 114 l7 94 80 0 80 0 5 -60 c5 -55 6 -57 13 -25 3 19 8
46 9 60 3 24 6 25 77 28 41 2 78 -1 82 -5 11 -11 13 -273 3 -430 -5 -90 -4
-123 5 -123 6 0 11 9 11 20 0 15 6 19 22 17 12 -2 24 -9 26 -15 2 -8 8 -7 19
3 19 19 33 19 33 0 0 -20 13 -19 34 4 15 16 18 40 18 145 0 75 5 129 11 133 7
4 8 -42 3 -140 -4 -81 -4 -153 1 -159 5 -8 10 4 13 32 4 37 9 45 25 45 15 0
21 -8 23 -33 4 -43 22 -41 22 3 0 32 2 35 30 35 28 0 30 -3 30 -34 0 -19 5
-38 10 -41 6 -4 10 10 10 34 0 40 1 41 35 41 33 0 35 -2 35 -36 0 -19 4 -33 8
-30 5 3 7 19 4 36 -4 29 -3 30 37 30 l41 0 0 -42 c0 -23 2 -39 5 -36 5 5 17
345 16 461 -1 41 2 47 20 47 21 0 21 -2 14 -92 -4 -51 -6 -111 -4 -133 2 -22
4 -91 4 -153 l0 -114 -30 -24 c-24 -19 -43 -24 -90 -25 -33 -1 -52 -3 -42 -6
34 -9 16 -21 -45 -27 -39 -5 -67 -14 -75 -24 -11 -14 -12 -14 -8 -1 5 13 -2
14 -57 6 -97 -14 -101 -22 -13 -25 77 -3 115 4 244 44 25 8 68 14 97 14 29 0
56 4 59 10 3 5 1 10 -4 10 -30 0 -3 23 64 54 62 29 79 42 104 81 34 54 115
267 137 363 90 387 95 870 13 1251 -36 164 -126 400 -172 449 -42 46 -230 125
-381 161 -27 6 -72 23 -100 36 -29 14 -67 28 -84 31 l-32 7 0 279 c0 173 -4
287 -10 299 -10 17 -22 19 -115 19 -94 0 -105 -2 -115 -20 -7 -13 -10 -107 -8
-271 l3 -251 -25 5 c-212 38 -325 61 -370 74 -31 9 -96 17 -150 18 -151 2
-360 17 -355 25 3 4 18 10 34 13 39 8 91 55 132 118 l32 50 20 -31 c55 -87
208 -102 292 -29 l35 31 10 -27 c5 -14 10 -29 10 -32 0 -3 9 -18 21 -34 55
-78 209 -95 209 -23 0 13 -11 42 -25 64 -40 64 -41 109 -6 252 17 69 31 147
31 172 0 44 -2 48 -35 62 -38 16 -60 17 -90 4z m-124 -140 c14 0 -96 -210
-131 -252 -24 -28 -31 -31 -47 -22 -28 17 -46 95 -33 143 11 43 49 95 84 113
26 14 86 27 104 22 8 -2 18 -4 23 -4z m-336 -502 c77 -6 145 -15 152 -20 10
-8 19 -52 28 -139 21 -211 24 -264 15 -273 -6 -6 -24 -6 -47 0 -47 11 -53 36
-23 94 12 23 19 44 17 47 -10 10 -49 -61 -54 -99 l-6 -40 -45 6 c-25 3 -57 6
-73 6 -27 0 -36 15 -44 80 -4 25 -17 50 -26 50 -5 0 -6 -15 -3 -32 4 -18 8
-43 8 -55 1 -13 4 -23 9 -23 4 0 7 -4 7 -10 0 -6 -105 -10 -292 -11 -161 0
-358 -4 -438 -8 -80 -4 -148 -6 -151 -5 -4 2 -4 15 -1 29 3 17 11 25 26 26 19
2 19 2 -3 6 -23 5 -23 7 -17 76 14 154 29 257 40 271 8 12 63 18 246 30 242
15 431 13 675 -6z m-949 -35 c-4 -16 -13 -104 -21 -197 -8 -93 -17 -171 -19
-174 -11 -10 16 319 31 376 8 32 16 27 9 -5z m1289 -183 c8 -69 15 -143 14
-165 -1 -22 -9 30 -19 115 -10 85 -21 173 -24 195 -5 36 -5 37 4 10 6 -16 17
-86 25 -155z m-2047 38 c-22 -34 -56 -143 -83 -265 -13 -59 -24 -94 -24 -78
-1 69 68 313 100 352 18 21 23 15 7 -9z m2797 -60 c31 -68 65 -178 55 -178 -4
0 -15 28 -25 62 -10 35 -28 87 -41 115 -12 29 -21 53 -18 53 3 0 16 -24 29
-52z m-2978 -25 c-17 -33 -51 -154 -67 -238 -6 -33 -13 -70 -15 -82 -4 -18
-20 -27 -74 -43 -37 -11 -73 -20 -79 -20 -29 0 104 363 142 388 23 15 101 39
104 31 2 -4 -3 -20 -11 -36z m-140 -30 c-30 -59 -80 -196 -104 -282 -9 -35
-19 -59 -21 -53 -7 23 50 203 93 290 24 51 47 92 50 92 3 0 -5 -21 -18 -47z
m-183 -67 c-3 -9 -14 -16 -24 -16 -11 0 -22 -5 -26 -11 -4 -7 0 -9 14 -5 20 7
19 2 -13 -93 -19 -54 -40 -127 -47 -162 -10 -52 -18 -65 -43 -81 -36 -21 -65
-23 -65 -4 0 30 61 198 99 274 27 54 50 86 73 100 36 23 42 23 32 -2z m3664
-63 c36 -93 65 -200 58 -216 -2 -7 -5 -4 -5 5 -1 25 -60 206 -81 251 -10 20
-14 37 -10 37 5 0 22 -35 38 -77z m34 55 c19 -13 42 -47 60 -85 35 -78 107
-290 101 -297 -5 -5 -73 21 -86 33 -4 5 -15 37 -23 72 -20 86 -74 249 -92 277
-19 29 -1 29 40 0z m-3305 -220 c-3 -7 -5 -2 -5 12 0 14 2 19 5 13 2 -7 2 -19
0 -25z m-168 -115 c-18 -133 -43 -526 -40 -636 l2 -58 -88 5 -88 5 2 128 c0
70 4 170 8 221 l7 92 31 1 c31 2 31 2 5 6 -33 5 -34 20 -14 143 l12 75 74 12
75 12 -75 -6 c-88 -6 -85 3 8 33 94 31 90 32 81 -33z m3661 -147 c23 -115 40
-259 47 -393 l6 -143 -55 0 -55 0 -6 123 c-4 80 -2 123 5 126 6 2 6 6 1 10 -5
3 -17 74 -27 156 -9 83 -20 165 -23 182 l-5 33 50 -21 c49 -20 51 -23 62 -73z
m-4010 71 c0 -7 -4 -38 -10 -68 -13 -74 -18 -112 -26 -199 -10 -110 -11 -116
-12 -232 l-2 -108 -55 0 -55 0 0 33 c0 126 47 538 63 553 7 7 73 33 85 34 6 0
12 -6 12 -13z m107 -639 c0 -161 3 -327 6 -368 4 -48 3 -62 -2 -40 -5 19 -9
29 -10 22 -2 -22 -21 -3 -21 21 0 18 -2 19 -10 7 -8 -12 -10 -12 -10 5 0 17
-2 17 -10 5 -7 -11 -10 -7 -11 20 -1 19 -3 26 -6 15 -2 -11 -6 -31 -10 -45
l-6 -25 -7 25 c-7 22 -8 20 -10 -15 -3 -79 -17 -2 -30 160 -14 184 -2 485 20
485 4 0 11 -24 15 -52 7 -48 9 -50 15 -23 6 29 7 29 15 -15 7 -40 9 -42 15
-20 4 14 13 39 20 55 11 28 13 28 20 10 7 -15 9 -10 9 23 1 23 2 42 4 42 1 0
3 -132 4 -292z m-157 -95 c1 -107 8 -207 24 -335 l12 -98 -25 -1 -26 -2 27 -4
c22 -4 28 -11 33 -44 4 -22 5 -43 2 -46 -3 -3 -26 3 -50 12 -38 14 -46 22 -50
48 -2 18 0 35 5 38 5 3 3 9 -6 12 -24 10 -19 37 7 38 l22 2 -22 4 c-23 4 -28
16 -36 81 -3 31 -2 32 32 34 l36 1 -37 4 c-35 4 -38 7 -40 36 0 18 -2 43 -3
57 -2 14 -6 76 -10 138 l-8 112 57 0 56 0 0 -87z m307 81 l52 -7 3 -98 3 -99
-40 -2 -40 -1 43 -4 c28 -3 42 -9 42 -19 0 -10 -14 -15 -52 -16 l-53 -2 51 -3
51 -4 7 -137 c4 -75 13 -183 20 -240 9 -74 9 -101 1 -98 -6 2 -40 12 -76 21
-35 10 -67 21 -71 24 -19 18 -53 302 -64 539 l-7 152 39 0 c21 0 62 -3 91 -6z
m3251 -406 c-3 -7 -20 -14 -38 -16 -30 -3 -32 -2 -21 12 16 19 65 22 59 4z
m92 -8 c0 -5 -6 -11 -12 -13 -7 -3 1 -6 19 -6 34 -1 49 -14 37 -32 -5 -8 -9
-8 -14 1 -5 9 -17 9 -44 2 -33 -10 -58 -1 -37 13 6 3 7 13 4 21 -3 9 0 20 7
24 15 9 40 2 40 -10z m-387 -26 c21 -14 63 -29 95 -35 31 -5 59 -9 62 -10 3
-1 -8 -4 -24 -8 -47 -10 -36 -26 22 -29 44 -3 52 0 52 14 0 20 13 11 16 -11 1
-9 -6 -15 -19 -15 -12 0 -27 -4 -34 -8 -6 -4 60 -5 148 -3 141 3 159 1 159
-13 0 -14 -20 -16 -164 -16 -99 0 -167 -4 -171 -10 -3 -5 -1 -10 4 -10 7 0 11
-33 11 -90 0 -79 -2 -90 -17 -90 -17 -1 -17 -1 -1 -11 15 -8 17 -26 17 -114 0
-106 -4 -117 -37 -96 -11 7 -13 45 -7 203 7 169 6 196 -8 210 -9 8 -14 24 -11
34 3 15 -12 28 -76 64 -79 45 -86 51 -73 63 10 11 16 9 56 -19z m72 6 c-28
-12 -37 -12 -30 0 3 6 16 10 28 9 21 0 21 -1 2 -9z m130 0 c3 -6 -6 -15 -22
-21 -18 -7 -29 -7 -31 0 -2 5 -11 8 -20 5 -14 -5 -13 -2 2 10 22 18 62 21 71
6z m85 -50 c-36 -11 -52 -11 -45 0 3 6 21 10 38 9 31 -1 31 -1 7 -9z m60 -4
c0 -2 -7 -6 -15 -10 -8 -3 -15 -1 -15 4 0 6 7 10 15 10 8 0 15 -2 15 -4z m115
-6 c4 -6 -11 -10 -39 -10 -24 0 -53 -3 -63 -6 -12 -5 -15 -4 -8 4 9 9 37 16
87 21 9 0 20 -3 23 -9z m-2635 -106 c0 -27 -13 -55 -48 -109 -27 -39 -59 -97
-72 -128 -26 -62 -35 -69 -44 -34 -9 37 -20 273 -13 291 5 13 23 16 92 16 l85
0 0 -36z m2416 -16 c-3 -13 -6 -29 -6 -35 0 -7 -10 -14 -22 -14 l-23 -2 23 -4
c18 -4 22 -11 22 -43 0 -29 -5 -42 -21 -50 -37 -21 -44 -8 -44 83 l0 87 39 0
c35 0 38 -2 32 -22z m94 3 c0 -38 -11 -51 -46 -51 -32 0 -34 2 -34 35 0 34 1
35 40 35 33 0 40 -3 40 -19z m86 -3 c-3 -13 -6 -29 -6 -36 0 -9 -11 -12 -32
-10 -28 3 -32 7 -35 36 -4 32 -4 32 38 32 38 0 41 -2 35 -22z m-3674 -25 c44
-17 58 -29 58 -50 0 -7 -14 -9 -42 -6 -52 7 -47 3 -58 42 -10 36 -12 36 42 14z
m3579 -68 l6 -30 7 28 c7 23 14 27 42 27 33 0 34 -1 34 -40 0 -39 -1 -40 -33
-40 -18 0 -38 5 -45 12 -9 9 -12 9 -12 0 0 -7 -16 -12 -40 -12 l-40 0 0 46 0
45 37 -3 c33 -3 39 -7 44 -33z m-484 -26 c-8 -24 -26 -63 -40 -86 -15 -24 -27
-47 -27 -53 0 -5 -4 -10 -10 -10 -18 0 -11 29 21 93 58 114 80 136 56 56z
m-3051 25 c16 -4 24 -19 34 -61 13 -59 34 -124 69 -210 23 -59 17 -65 -29 -27
-42 36 -140 237 -140 289 0 16 28 19 66 9z m223 -169 c23 -71 55 -157 71 -190
17 -33 23 -51 14 -40 -30 37 -91 180 -112 260 -46 180 -37 170 27 -30z m3068
143 c-3 -8 -6 -5 -6 6 -1 11 2 17 5 13 3 -3 4 -12 1 -19z m-3005 -19 c29 -6
57 -14 61 -18 4 -4 19 -61 32 -126 22 -106 23 -120 10 -135 -8 -9 -15 -20 -15
-25 0 -14 42 -55 56 -55 6 0 14 -6 17 -14 8 -20 -21 -25 -63 -11 -30 10 -41
23 -76 93 -39 77 -104 257 -104 288 0 17 13 17 82 3z m2418 -33 c0 -3 -4 -8
-10 -11 -5 -3 -10 -1 -10 4 0 6 5 11 10 11 6 0 10 -2 10 -4z m730 0 c0 -2 3
-11 6 -20 5 -13 -1 -16 -30 -16 -34 0 -47 15 -29 33 7 8 53 10 53 3z m100 -16
c0 -17 -7 -20 -40 -20 -33 0 -40 3 -40 20 0 17 7 20 40 20 33 0 40 -3 40 -20z
m88 -2 c-2 -18 -11 -24 -35 -26 -30 -3 -33 -1 -33 22 0 23 4 26 36 26 31 0 35
-3 32 -22z m-774 -135 c-31 -60 -61 -112 -65 -118 -5 -5 -9 -20 -9 -33 0 -18
4 -23 16 -18 10 4 14 1 12 -6 -3 -7 -13 -13 -24 -13 -31 0 -32 67 -1 97 14 12
28 36 31 52 7 28 81 146 92 146 3 0 -20 -48 -52 -107z m596 72 c0 -32 -2 -35
-29 -35 -35 0 -45 12 -37 46 5 19 13 24 36 24 28 0 30 -3 30 -35z m78 25 c9 0
12 -10 10 -27 -2 -23 -8 -29 -35 -31 -32 -3 -33 -2 -33 34 0 33 2 36 23 30 12
-3 28 -6 35 -6z m70 -6 c13 -4 22 -14 22 -25 0 -14 -7 -19 -30 -19 -25 0 -30
4 -30 25 0 27 3 28 38 19z m-2422 -70 c-4 -9 -9 -15 -11 -12 -3 3 -3 13 1 22
4 9 9 15 11 12 3 -3 3 -13 -1 -22z m1784 2 c0 -3 -4 -8 -10 -11 -5 -3 -10 -1
-10 4 0 6 5 11 10 11 6 0 10 -2 10 -4z m490 -41 c0 -43 -1 -45 -29 -45 -23 0
-30 6 -35 26 -11 42 1 64 35 64 28 0 29 -2 29 -45z m90 0 c0 -45 0 -45 -34
-45 -37 0 -45 12 -38 63 4 23 9 27 38 27 34 0 34 -1 34 -45z m78 -2 l3 -43
-35 0 c-35 0 -36 1 -36 38 0 46 6 54 40 50 22 -3 25 -8 28 -45z m-2378 -23 c0
-10 -4 -22 -10 -25 -6 -4 -10 7 -10 25 0 18 4 29 10 25 6 -3 10 -15 10 -25z
m-106 -61 c-9 -30 -19 -48 -21 -41 -5 14 26 106 33 99 2 -2 -3 -28 -12 -58z
m-169 1 c-4 -12 -9 -19 -12 -17 -3 3 -2 15 2 27 4 12 9 19 12 17 3 -3 2 -15
-2 -27z m-535 -21 c0 -6 -4 -7 -10 -4 -5 3 -10 11 -10 16 0 6 5 7 10 4 6 -3
10 -11 10 -16z m2175 -9 c-4 -12 -9 -19 -12 -17 -3 3 -2 15 2 27 4 12 9 19 12
17 3 -3 2 -15 -2 -27z m355 -9 c15 -29 12 -41 -10 -41 -16 0 -20 7 -20 30 0
34 14 39 30 11z"/>
<path d="M2650 3359 c25 -4 144 -7 265 -7 174 1 201 3 130 9 -125 10 -454 9
-395 -2z"/>
<path d="M2298 3203 c45 -2 119 -2 165 0 45 1 8 3 -83 3 -91 0 -128 -2 -82 -3z"/>
<path d="M2923 3203 c9 -2 25 -2 35 0 9 3 1 5 -18 5 -19 0 -27 -2 -17 -5z"/>
<path d="M2067 3193 c18 -2 50 -2 70 0 21 2 7 4 -32 4 -38 0 -55 -2 -38 -4z"/>
<path d="M2303 3173 c26 -2 68 -2 95 0 26 2 4 3 -48 3 -52 0 -74 -1 -47 -3z"/>
<path d="M2123 3163 c15 -2 39 -2 55 0 15 2 2 4 -28 4 -30 0 -43 -2 -27 -4z"/>
<path d="M3138 3123 c7 -3 16 -2 19 1 4 3 -2 6 -13 5 -11 0 -14 -3 -6 -6z"/>
<path d="M4518 2943 c7 -3 16 -2 19 1 4 3 -2 6 -13 5 -11 0 -14 -3 -6 -6z"/>
<path d="M883 2223 c9 -2 23 -2 30 0 6 3 -1 5 -18 5 -16 0 -22 -2 -12 -5z"/>
<path d="M1570 1424 c-12 -19 -20 -38 -17 -40 3 -3 15 12 27 35 25 50 19 54
-10 5z"/>
<path d="M1642 4159 c-71 -20 -107 -123 -99 -281 8 -170 36 -226 120 -235 39
-5 54 -1 86 20 36 24 99 94 157 173 l22 29 7 -50 c18 -128 49 -185 109 -200
29 -7 44 -5 64 6 24 13 27 20 24 64 -2 28 -4 139 -5 248 -2 219 -1 217 -69
217 -50 0 -85 -17 -96 -49 -6 -14 -17 -46 -26 -71 -17 -46 -122 -193 -175
-244 l-30 -28 -7 37 c-8 47 1 127 26 218 11 39 20 82 20 94 0 40 -69 68 -128
52z"/>
<path d="M4058 4075 c-54 -28 -76 -59 -58 -80 15 -18 47 -6 63 22 7 12 22 35
35 52 28 37 22 38 -40 6z"/>
<path d="M3998 3849 c-26 -15 -22 -38 9 -50 20 -8 28 -7 34 4 5 7 26 19 49 27
22 7 40 17 40 22 0 11 -111 9 -132 -3z"/>
<path d="M4610 3649 c0 -5 5 -7 10 -4 6 3 10 8 10 11 0 2 -4 4 -10 4 -5 0 -10
-5 -10 -11z"/>
<path d="M1718 3163 c12 -2 30 -2 40 0 9 3 -1 5 -23 4 -22 0 -30 -2 -17 -4z"/>
<path d="M1623 3153 c9 -2 25 -2 35 0 9 3 1 5 -18 5 -19 0 -27 -2 -17 -5z"/>
<path d="M1543 3143 c9 -2 23 -2 30 0 6 3 -1 5 -18 5 -16 0 -22 -2 -12 -5z"/>
<path d="M1468 3133 c6 -2 18 -2 25 0 6 3 1 5 -13 5 -14 0 -19 -2 -12 -5z"/>
<path d="M1768 3133 c7 -3 16 -2 19 1 4 3 -2 6 -13 5 -11 0 -14 -3 -6 -6z"/>
<path d="M1678 3123 c7 -3 16 -2 19 1 4 3 -2 6 -13 5 -11 0 -14 -3 -6 -6z"/>
<path d="M3483 3073 c9 -2 25 -2 35 0 9 3 1 5 -18 5 -19 0 -27 -2 -17 -5z"/>
<path d="M1688 3063 c12 -2 30 -2 40 0 9 3 -1 5 -23 4 -22 0 -30 -2 -17 -4z"/>
<path d="M2690 3021 c-39 -41 -44 -77 -14 -102 21 -17 27 -5 12 26 -12 26 -10
30 25 60 37 32 48 55 25 55 -6 0 -28 -18 -48 -39z"/>
<path d="M2184 3030 c-34 -14 -54 -50 -54 -100 0 -33 3 -41 10 -30 5 8 10 29
10 45 0 17 4 35 8 41 12 19 49 34 84 34 25 0 29 3 18 10 -18 12 -48 12 -76 0z"/>
<path d="M2423 2905 c16 -57 19 -65 33 -65 23 0 16 35 -12 61 -24 22 -26 22
-21 4z"/>
<path d="M2885 2877 c-20 -38 -14 -87 10 -87 18 0 19 12 4 27 -8 8 -8 21 1 48
16 48 8 54 -15 12z"/>
<path d="M3346 2885 c-3 -10 -2 -32 4 -50 8 -24 7 -40 -5 -68 -17 -40 -9 -51
28 -41 36 8 43 -13 17 -48 -26 -36 -16 -53 11 -19 29 35 22 75 -14 79 -24 3
-27 7 -20 25 9 27 7 85 -5 117 -8 21 -9 21 -16 5z"/>
<path d="M2028 2863 c-9 -10 -19 -29 -23 -43 -7 -22 -6 -23 9 -11 9 7 16 18
16 24 0 6 7 19 17 29 9 10 12 18 6 18 -5 0 -17 -8 -25 -17z"/>
<path d="M2651 2843 c1 -10 5 -31 9 -48 l7 -30 7 27 c4 14 6 34 4 44 -4 24
-28 30 -27 7z"/>
<path d="M1821 2754 c-24 -37 -31 -59 -31 -98 0 -37 3 -47 10 -36 5 8 10 28
10 43 0 15 12 50 26 78 33 66 24 75 -15 13z"/>
<path d="M3106 2774 c-3 -9 -6 -23 -6 -32 0 -21 15 -5 25 26 7 25 -9 31 -19 6z"/>
<path d="M1958 2742 c-12 -44 34 -88 77 -72 17 7 15 9 -15 17 -27 7 -37 17
-46 42 -9 29 -12 31 -16 13z"/>
<path d="M2940 2703 c0 -32 4 -43 15 -43 19 0 20 40 0 66 -13 18 -14 16 -15
-23z"/>
<path d="M2591 2691 c-44 -41 -38 -48 9 -10 22 18 40 34 40 36 0 11 -22 -1
-49 -26z"/>
<path d="M2126 2691 c-14 -15 -11 -16 25 -17 45 -2 50 6 14 22 -19 10 -27 9
-39 -5z"/>
<path d="M2255 2690 l-30 -7 27 -7 c31 -9 58 -2 58 14 0 11 -10 11 -55 0z"/>
<path d="M1609 2592 c-58 -59 -91 -141 -68 -168 7 -8 8 -24 4 -41 -5 -16 -9
-45 -10 -65 -1 -31 1 -34 11 -20 24 35 29 81 18 162 -5 37 -2 50 16 73 12 15
27 27 34 27 11 0 56 52 56 65 0 15 -29 -1 -61 -33z"/>
<path d="M2467 2582 c-10 -10 -17 -26 -17 -35 0 -9 -10 -22 -22 -28 -23 -12
-38 -28 -38 -40 0 -19 75 35 87 61 7 18 26 36 45 45 l33 14 -36 1 c-22 0 -42
-7 -52 -18z"/>
<path d="M3453 2582 c10 -11 31 -23 45 -27 39 -10 62 -34 62 -65 0 -17 7 -30
16 -34 14 -5 16 -1 10 26 -12 61 -40 86 -127 113 -24 8 -24 7 -6 -13z"/>
<path d="M2885 2570 c-7 -12 12 -12 40 0 18 8 17 9 -7 9 -15 1 -30 -3 -33 -9z"/>
<path d="M2980 2523 c19 -36 26 -73 14 -73 -3 0 -17 14 -31 30 -29 35 -72 60
-103 60 -29 0 -80 -58 -80 -91 0 -44 14 -42 25 3 7 29 18 47 37 57 25 14 31
14 71 -6 25 -12 47 -30 50 -42 7 -26 6 -26 -39 4 -42 29 -76 32 -98 9 -22 -22
-20 -41 2 -21 29 26 67 21 101 -14 40 -39 41 -79 5 -108 -15 -12 -34 -21 -44
-21 -25 0 -57 40 -66 85 -7 38 -8 38 -12 11 -2 -16 4 -47 14 -68 24 -54 14
-69 -64 -99 -47 -17 -82 -47 -82 -71 0 -19 1 -19 20 4 11 15 38 30 64 37 28 7
54 22 73 44 16 19 42 37 56 41 25 6 27 4 27 -23 0 -25 4 -29 33 -34 41 -6 46
-1 14 14 -39 18 -41 37 -7 75 23 26 30 45 30 74 0 33 3 40 20 40 32 0 27 62
-7 95 -39 35 -46 31 -23 -12z"/>
<path d="M2019 2521 c-33 -33 -33 -34 -12 -136 6 -30 16 -43 36 -53 16 -8 31
-20 34 -28 9 -25 -15 -63 -44 -70 -15 -4 -45 -16 -65 -27 -57 -31 -62 -58 -53
-277 4 -104 4 -197 1 -208 -4 -12 -22 -26 -42 -32 -40 -13 -64 -35 -64 -57 0
-12 7 -14 33 -9 17 3 39 7 49 8 12 2 41 -45 113 -187 54 -104 107 -203 117
-218 24 -34 41 -152 32 -224 -5 -45 -4 -53 14 -62 12 -6 35 -11 52 -11 17 0
44 -7 60 -15 28 -15 32 -14 70 11 22 15 40 34 40 42 0 18 -59 173 -72 187 -17
19 -7 -43 17 -116 l26 -74 -22 -17 c-41 -34 -49 -24 -49 56 0 93 -27 200 -74
296 -20 41 -33 66 -30 55 4 -11 10 -58 14 -105 5 -47 15 -105 24 -130 25 -72
45 -169 36 -175 -5 -3 -14 1 -22 8 -7 7 -26 13 -43 13 -25 -1 -29 2 -26 19 3
11 5 54 5 96 1 86 -1 91 -89 249 -24 45 -60 115 -78 156 -29 64 -33 81 -26
112 4 20 17 45 29 54 20 16 24 16 55 1 23 -11 35 -25 40 -47 7 -30 8 -30 16
17 9 58 33 97 58 97 29 0 68 -53 75 -104 4 -25 11 -48 17 -51 5 -4 9 -36 9
-73 0 -100 23 -312 33 -312 6 0 7 20 3 48 -4 26 -11 104 -16 174 -6 99 -5 136
6 165 7 21 13 49 14 63 1 36 13 52 34 44 16 -6 17 -4 8 13 -6 11 -18 25 -26
32 -8 7 -18 25 -21 41 -3 15 -15 36 -25 45 -32 29 -42 80 -39 188 4 96 3 103
-17 111 -11 5 -25 19 -30 30 -11 26 -54 32 -91 12 -28 -14 -28 -14 16 -9 43 6
44 5 37 -18 -4 -13 -11 -51 -16 -83 -5 -33 -14 -62 -20 -66 -8 -5 -7 -9 4 -13
12 -5 16 -20 16 -61 0 -59 -7 -66 -63 -66 -24 0 -28 -3 -17 -10 8 -5 26 -10
39 -10 20 0 21 -2 11 -15 -11 -13 -8 -13 19 -4 18 6 35 9 38 5 3 -3 -3 -8 -13
-12 -45 -15 -121 -56 -149 -79 l-30 -26 47 26 c26 15 55 25 65 23 12 -3 1 -13
-37 -32 -71 -36 -90 -54 -90 -82 0 -35 -19 -39 -31 -7 -16 42 -3 119 28 172
15 25 31 54 35 64 4 9 13 17 19 17 8 0 10 13 5 41 -4 26 -2 46 5 55 7 9 8 14
1 14 -23 0 -42 33 -42 71 0 21 3 39 8 39 4 0 25 12 47 26 38 24 39 25 10 19
-16 -4 -38 -14 -47 -22 -17 -15 -18 -14 -18 5 0 11 -3 23 -8 26 -10 6 -7 -140
6 -199 11 -54 0 -98 -31 -124 -14 -11 -17 -11 -17 0 -1 8 -5 83 -10 168 -5 84
-6 160 -3 168 3 8 34 28 67 43 34 15 74 41 88 58 17 20 36 32 58 34 28 2 39
11 63 51 28 45 29 50 17 95 -12 50 -23 62 -57 62 -16 0 -21 -4 -17 -15 7 -17
-31 -22 -41 -5 -4 6 -16 8 -28 4 -19 -5 -17 -1 10 28 26 27 29 34 15 34 -9 1
-25 4 -34 9 -13 5 -27 -2 -49 -24z m51 0 c0 -5 -7 -11 -15 -15 -15 -5 -20 5
-8 17 9 10 23 9 23 -2z m-24 -77 c-4 -9 -9 -15 -11 -12 -3 3 -3 13 1 22 4 9 9
15 11 12 3 -3 3 -13 -1 -22z m142 -63 c3 -44 0 -55 -20 -71 -31 -26 -44 -25
-76 7 -15 15 -33 26 -39 25 -7 -2 -13 3 -13 9 0 7 3 9 6 6 4 -3 15 5 26 19 21
26 87 65 103 60 6 -1 11 -26 13 -55z m16 -290 c17 -19 17 -19 -3 -14 -12 3
-21 12 -21 19 0 18 4 18 24 -5z m-12 -53 c-7 -7 -12 -8 -12 -2 0 6 3 14 7 17
3 4 9 5 12 2 2 -3 -1 -11 -7 -17z m10 -110 c-7 -7 -12 -8 -12 -2 0 6 3 14 7
17 3 4 9 5 12 2 2 -3 -1 -11 -7 -17z m-297 -259 c9 -14 6 -16 -40 -24 l-40 -6
24 20 c26 23 46 27 56 10z m365 -562 c15 -72 -4 -85 -24 -16 -9 29 -16 64 -16
78 1 25 1 25 15 7 7 -10 19 -41 25 -69z"/>
<path d="M1830 2501 c0 -12 41 -63 68 -85 20 -16 23 -25 18 -58 -5 -30 -3 -38
9 -38 11 0 15 11 15 36 0 44 -12 68 -58 117 -35 36 -52 46 -52 28z"/>
<path d="M3047 2448 c-9 -37 -12 -207 -3 -215 16 -16 26 27 26 117 0 96 -12
145 -23 98z"/>
<path d="M3637 2402 c-33 -4 -26 -22 9 -22 31 0 40 -22 24 -60 -11 -27 -10
-33 15 -61 16 -20 25 -40 22 -51 -6 -21 25 -38 69 -38 18 0 24 -5 24 -23 0
-22 31 -57 50 -57 13 0 12 17 -4 64 -16 47 -29 56 -83 56 -35 0 -43 4 -43 18
0 10 -6 27 -14 38 -10 13 -11 25 -5 35 11 17 12 70 1 85 -10 15 -32 20 -65 16z"/>
<path d="M3171 2391 c-27 -7 -49 -36 -38 -48 4 -4 22 7 40 25 17 18 29 32 27
31 -3 -1 -16 -4 -29 -8z"/>
<path d="M3219 2373 c5 -10 12 -26 15 -35 3 -10 12 -18 20 -18 28 0 -8 69 -37
70 -4 0 -3 -8 2 -17z"/>
<path d="M4131 2339 c-27 -44 -27 -100 -1 -124 28 -25 34 -14 13 23 -17 29
-17 33 0 78 21 57 15 68 -12 23z"/>
<path d="M3298 2343 c6 -2 12 -11 12 -19 0 -15 12 -19 23 -7 10 9 -13 33 -32
32 -10 0 -11 -2 -3 -6z"/>
<path d="M3580 2272 l0 -32 -102 0 c-57 0 -168 -3 -248 -8 l-145 -7 245 -5
245 -5 0 -25 c0 -15 6 -25 15 -25 19 0 21 108 2 127 -9 9 -12 5 -12 -20z"/>
<path d="M2161 2255 c-1 -14 9 -24 31 -33 42 -15 48 -8 10 12 -17 9 -32 21
-35 28 -3 7 -6 4 -6 -7z"/>
<path d="M1632 2220 c-9 -20 -10 -35 -3 -48 9 -16 17 -18 63 -11 29 4 82 9
118 10 52 2 43 4 -44 8 -148 8 -154 27 -12 36 58 4 115 5 126 2 11 -3 20 -1
20 4 0 5 -54 9 -120 9 -73 0 -120 4 -120 10 0 20 -15 9 -28 -20z"/>
<path d="M2465 2240 l-200 -6 218 -2 c139 -1 217 2 217 8 0 6 -8 9 -17 8 -10
-1 -108 -5 -218 -8z"/>
<path d="M3971 2222 c-7 -13 -11 -26 -8 -28 8 -8 29 25 25 38 -3 8 -9 4 -17
-10z"/>
<path d="M1276 2187 c-7 -43 -4 -57 26 -118 18 -37 36 -69 41 -69 17 0 5 59
-18 90 -14 19 -25 48 -26 64 -1 17 -4 42 -8 56 -6 22 -8 18 -15 -23z"/>
<path d="M1482 2208 c-7 -7 -12 -24 -12 -39 0 -15 -5 -40 -10 -55 -9 -23 -7
-31 14 -53 33 -34 39 -99 11 -115 -36 -21 -75 -64 -75 -85 0 -29 17 -26 24 4
4 14 24 36 47 51 l40 25 -7 57 c-4 34 -14 65 -25 78 -16 17 -18 28 -10 67 4
26 14 54 21 62 15 18 -1 20 -18 3z"/>
<path d="M2980 2210 c-34 -5 -41 -8 -27 -14 10 -5 31 -6 47 -3 44 9 61 -21 53
-95 -4 -36 -1 -82 7 -116 15 -64 36 -99 26 -42 -4 19 -9 82 -12 140 -5 73 -11
110 -22 123 -8 9 -18 16 -21 15 -3 0 -26 -4 -51 -8z"/>
<path d="M2465 2200 c-86 -3 -142 -8 -131 -13 25 -10 306 3 306 15 0 4 -6 7
-12 6 -7 -1 -80 -5 -163 -8z"/>
<path d="M2210 2189 l-45 -7 52 1 c59 2 73 -11 73 -68 0 -19 5 -35 10 -35 13
0 13 61 0 94 -10 27 -14 28 -90 15z"/>
<path d="M3175 2181 c-47 -4 -64 -9 -51 -14 18 -7 430 2 423 10 -7 6 -301 9
-372 4z"/>
<path d="M2731 2128 c-2 -72 1 -124 10 -134 5 -6 12 -32 15 -57 6 -41 3 -51
-22 -84 l-29 -38 -6 60 c-4 33 -7 101 -8 150 -1 50 -6 97 -11 105 -7 10 -8
-51 -4 -191 l7 -206 -24 -16 c-13 -10 -31 -17 -41 -17 -18 0 -48 -36 -48 -58
0 -10 7 -12 23 -8 75 22 81 21 97 -25 11 -32 22 -45 41 -50 15 -4 41 -17 58
-30 47 -35 50 -14 3 29 -52 48 -55 79 -12 115 38 33 67 42 85 27 10 -8 11 -18
4 -36 -5 -14 -8 -46 -8 -72 l2 -47 10 38 c6 20 14 37 19 37 4 0 8 18 8 39 0
56 8 71 40 71 54 0 89 -78 65 -147 -7 -21 -17 -36 -22 -33 -4 3 -11 -17 -14
-45 -4 -27 -12 -63 -19 -80 -30 -77 -80 -291 -80 -345 0 -52 -3 -61 -27 -80
-30 -23 -69 -23 -66 0 1 8 11 42 23 75 27 76 47 213 54 357 7 148 -10 93 -25
-82 -6 -69 -12 -143 -14 -165 -2 -22 -17 -74 -34 -115 -42 -101 -41 -110 10
-110 32 0 47 6 71 30 28 28 30 35 24 78 -4 34 -2 54 8 67 7 11 11 26 8 34 -3
9 -1 12 6 7 8 -5 11 -38 8 -102 -1 -52 1 -97 5 -100 8 -5 8 -5 14 106 3 52 -1
88 -12 117 -14 40 -14 46 8 115 l22 73 9 -45 c4 -25 6 -57 3 -71 -6 -27 1 -63
39 -199 31 -106 33 -91 5 27 -28 113 -41 337 -22 373 7 14 13 30 13 36 0 7 11
15 24 18 27 7 49 54 60 129 7 42 10 47 28 42 17 -6 18 -4 9 12 -5 11 -17 25
-25 33 -9 7 -16 19 -16 28 0 8 -11 29 -23 46 -41 53 -50 97 -42 203 8 104 2
118 -43 106 -13 -3 -41 2 -64 13 -38 17 -42 17 -88 1 -59 -21 -70 -21 -70 -2
0 24 -18 17 -19 -7z m122 -30 c-25 -12 -30 -44 -14 -94 5 -16 11 -57 13 -91 4
-55 2 -64 -15 -69 -15 -5 -17 -8 -6 -15 11 -6 4 -22 -30 -70 -24 -34 -39 -59
-32 -55 20 13 12 -6 -19 -41 -16 -18 -30 -38 -30 -43 0 -6 -4 -10 -9 -10 -19
0 -23 84 -7 132 18 53 65 128 79 128 5 0 7 20 5 45 -3 25 -2 48 3 51 14 8 10
24 -6 24 -18 0 -35 31 -35 65 0 30 43 54 95 54 29 0 29 -1 8 -11z m136 2 c16
-8 17 -16 11 -52 -5 -23 -15 -47 -24 -54 -21 -15 -20 -20 4 -44 14 -14 20 -33
20 -62 0 -27 7 -49 19 -62 23 -26 54 -118 46 -139 -5 -12 -14 -7 -42 24 -41
45 -98 66 -122 45 -20 -17 -77 -46 -91 -46 -45 0 52 63 140 91 51 16 52 17 21
18 -21 1 -52 -10 -83 -30 -28 -16 -52 -28 -54 -26 -2 2 3 18 12 35 13 28 21
32 54 32 21 0 45 3 54 6 31 12 15 19 -34 16 l-50 -4 0 46 c0 25 -7 70 -15 101
-8 31 -12 62 -9 69 13 34 104 57 143 36z m-319 -420 c0 -10 -71 -32 -79 -24
-3 3 3 12 13 20 22 16 66 19 66 4z"/>
<path d="M3984 2111 c3 -5 -1 -14 -9 -21 -21 -17 -19 -44 5 -65 30 -27 25 -51
-11 -59 -43 -8 -119 -83 -118 -116 1 -24 1 -24 14 6 17 39 65 80 104 89 48 10
58 31 33 65 -23 31 -29 65 -12 75 13 8 13 35 -1 35 -5 0 -8 -4 -5 -9z"/>
<path d="M4191 2069 c-1 -31 -8 -75 -16 -98 -13 -38 -13 -42 1 -48 25 -9 34
16 33 92 -1 88 -17 137 -18 54z"/>
<path d="M1150 2093 c0 -10 5 -25 10 -33 8 -12 10 -9 10 12 0 15 -4 30 -10 33
-5 3 -10 -2 -10 -12z"/>
<path d="M2390 2090 c0 -12 98 -12 180 0 46 6 36 7 -62 9 -73 0 -118 -3 -118
-9z"/>
<path d="M3175 2071 c-32 -13 61 -21 231 -21 139 0 189 8 148 24 -23 9 -355 6
-379 -3z"/>
<path d="M4247 1993 c-15 -37 -14 -53 3 -53 9 0 30 54 30 76 0 27 -18 14 -33
-23z"/>
<path d="M1155 1994 c-37 -57 -61 -174 -35 -174 6 0 10 15 10 34 0 18 11 63
25 100 27 71 27 81 0 40z"/>
<path d="M2300 1978 c0 -20 5 -40 10 -43 13 -8 13 45 0 65 -7 11 -10 6 -10
-22z"/>
<path d="M2366 1960 c5 -5 52 -10 104 -12 l95 -3 -105 -11 -105 -11 147 -2
c89 0 149 3 153 9 3 6 -5 10 -19 10 -13 0 -33 3 -43 7 -14 6 -11 9 17 14 19 4
-30 7 -109 8 -93 1 -142 -2 -135 -9z"/>
<path d="M3090 1874 c0 -36 20 -90 51 -139 30 -47 30 -49 12 -63 -16 -12 -11
-13 37 -9 68 5 73 25 11 48 -42 15 -44 19 -70 92 -27 79 -41 103 -41 71z"/>
<path d="M4301 1861 c-1 -27 2 -32 11 -23 8 8 8 17 0 34 -10 22 -11 21 -11
-11z"/>
<path d="M4573 1840 c0 -30 2 -43 4 -27 2 15 2 39 0 55 -2 15 -4 2 -4 -28z"/>
<path d="M2330 1849 c0 -42 23 -99 56 -138 35 -40 35 -51 0 -51 -20 -1 -20 -1
-3 -11 11 -6 30 -8 45 -3 15 4 35 6 45 5 13 -2 18 3 15 15 -2 10 -21 23 -49
31 -46 15 -46 16 -70 90 -24 76 -39 101 -39 62z"/>
<path d="M2460 1841 c-36 -4 -49 -8 -37 -13 23 -10 207 3 207 14 0 9 -81 8
-170 -1z"/>
<path d="M3820 1785 c-19 -23 -8 -26 20 -5 19 15 21 20 9 20 -9 0 -22 -7 -29
-15z"/>
<path d="M1314 1748 c-52 -54 -57 -71 -39 -114 19 -45 28 -43 20 4 -5 34 -2
45 30 86 48 63 41 78 -11 24z"/>
<path d="M4305 1769 c-4 -6 2 -17 14 -25 25 -18 26 -31 4 -56 -19 -21 -5 -45
21 -35 20 8 40 51 33 70 -9 23 -65 59 -72 46z"/>
<path d="M2410 1740 c0 -6 45 -10 114 -10 66 0 117 4 121 10 4 6 -37 10 -114
10 -74 0 -121 -4 -121 -10z"/>
<path d="M1500 1670 c-11 -11 -20 -33 -20 -50 0 -27 -3 -30 -34 -30 -38 0 -96
-41 -96 -67 0 -11 8 -8 31 11 17 14 41 26 53 26 31 0 76 36 76 60 0 11 11 27
25 36 14 9 25 20 25 25 0 17 -40 9 -60 -11z"/>
<path d="M2947 1655 c-4 -8 -2 -17 3 -20 6 -4 10 3 10 14 0 25 -6 27 -13 6z"/>
<path d="M4588 1633 c6 -2 18 -2 25 0 6 3 1 5 -13 5 -14 0 -19 -2 -12 -5z"/>
<path d="M2216 1605 c-9 -26 -7 -32 5 -12 6 10 9 21 6 23 -2 3 -7 -2 -11 -11z"/>
<path d="M1240 1552 c-16 -13 -21 -26 -18 -47 4 -26 5 -27 12 -10 4 11 13 32
21 48 17 32 15 33 -15 9z"/>
<path d="M2400 1560 c-51 -5 -35 -7 78 -8 l142 -2 1 -52 c1 -87 17 -105 18
-20 1 57 4 72 16 72 8 0 15 5 15 10 0 11 -161 11 -270 0z"/>
<path d="M2110 1549 c0 -11 58 -160 65 -168 12 -11 -12 81 -32 127 -22 50 -33
64 -33 41z"/>
<path d="M2443 1495 c0 -22 2 -30 4 -17 2 12 2 30 0 40 -3 9 -5 -1 -4 -23z"/>
<path d="M4553 1523 c9 -2 23 -2 30 0 6 3 -1 5 -18 5 -16 0 -22 -2 -12 -5z"/>
<path d="M2548 1483 c-34 -51 -62 -107 -51 -100 14 9 86 128 80 133 -2 2 -15
-13 -29 -33z"/>
<path d="M3647 1463 c-20 -27 -33 -50 -31 -53 6 -5 32 28 58 72 26 43 12 33
-27 -19z"/>
<path d="M3473 1478 c-11 -13 -26 -34 -33 -48 -10 -22 -9 -22 14 5 45 52 62
89 19 43z"/>
<path d="M2717 1483 c-4 -3 -7 -11 -7 -17 0 -6 5 -5 12 2 6 6 9 14 7 17 -3 3
-9 2 -12 -2z"/>
<path d="M3260 1467 c-17 -25 -31 -57 -25 -57 2 0 13 16 25 36 24 38 24 57 0
21z"/>
<path d="M1310 1463 c1 -10 7 -29 15 -43 14 -25 14 -24 15 18 0 31 -4 42 -15
42 -8 0 -15 -8 -15 -17z"/>
<path d="M2378 1448 c-30 -40 -58 -92 -58 -109 0 -11 49 64 81 124 15 27 4 20
-23 -15z"/>
<path d="M3056 1437 c-23 -30 -50 -87 -42 -87 2 0 13 15 24 33 11 19 27 46 37
60 24 38 11 34 -19 -6z"/>
<path d="M3522 1432 c-46 -58 -104 -171 -100 -196 3 -15 12 -4 35 45 16 36 47
92 67 123 43 68 42 84 -2 28z"/>
<path d="M2731 1374 c-44 -65 -61 -104 -47 -104 4 0 71 112 95 158 24 45 1 20
-48 -54z"/>
<path d="M3095 1388 c-26 -34 -55 -79 -66 -100 -20 -40 -25 -88 -9 -88 6 0 10
7 10 15 0 20 43 105 88 172 50 75 34 76 -23 1z"/>
<path d="M1190 1411 c0 -4 11 -13 25 -19 30 -14 84 -16 70 -3 -14 12 -95 30
-95 22z"/>
<path d="M1760 1379 c-12 -23 -20 -43 -18 -45 3 -2 14 17 26 41 27 56 20 60
-8 4z"/>
<path d="M2536 1342 c-46 -79 -75 -164 -44 -132 19 20 102 199 96 206 -3 3
-26 -30 -52 -74z"/>
<path d="M2390 1343 c-66 -118 -64 -112 -52 -162 6 -26 27 -83 48 -128 29 -62
41 -79 54 -76 21 6 36 -27 18 -39 -7 -4 53 -8 135 -8 91 0 147 4 147 10 0 6
-6 10 -14 10 -10 0 -3 26 25 95 38 93 49 142 29 130 -12 -8 -4 65 12 108 9 22
8 31 -1 37 -10 6 -10 12 -2 28 6 11 11 29 11 39 0 22 -105 -139 -121 -185 -8
-23 -8 -37 -1 -44 7 -7 7 -20 0 -39 -5 -15 -8 -60 -6 -98 2 -59 0 -71 -14 -74
-9 -3 -19 -2 -22 1 -10 9 -7 57 4 68 5 5 7 71 3 169 -6 151 -10 165 -29 90 -7
-27 -8 -28 -11 -7 -3 12 -9 22 -14 22 -5 0 -7 11 -3 25 11 46 -5 26 -51 -63
-72 -140 -74 -141 -76 -47 -1 76 -15 208 -18 174 -2 -26 -52 -129 -62 -129 -5
0 -2 14 7 31 21 41 45 111 40 116 -2 2 -18 -22 -36 -54z m47 -105 c-3 -8 -6
-5 -6 6 -1 11 2 17 5 13 3 -3 4 -12 1 -19z"/>
<path d="M3580 1381 c0 -11 5 -23 10 -26 6 -4 10 5 10 19 0 14 -4 26 -10 26
-5 0 -10 -9 -10 -19z"/>
<path d="M1945 1335 c-15 -25 -25 -50 -22 -57 4 -13 28 27 47 77 15 38 4 30
-25 -20z"/>
<path d="M2097 1173 c-2 -5 -5 -51 -6 -104 -1 -82 1 -98 15 -103 9 -4 19 -4
22 -2 8 9 -9 216 -18 216 -5 0 -11 -3 -13 -7z"/>
<path d="M1785 966 c-258 -63 -428 -300 -385 -539 15 -85 67 -191 120 -246 99
-101 242 -161 387 -161 159 0 282 49 389 155 268 265 132 692 -251 790 -70 18
-189 18 -260 1z m206 -170 c251 -59 340 -346 158 -510 -79 -71 -129 -91 -234
-91 -109 0 -159 19 -236 92 -64 60 -90 111 -97 189 -9 113 50 219 156 281 85
50 159 62 253 39z"/>
<path d="M1832 775 c-67 -19 -84 -28 -134 -73 -119 -108 -126 -267 -17 -387
67 -72 130 -99 234 -100 68 0 89 4 137 28 68 33 139 109 156 165 20 65 15 150
-12 207 -58 125 -225 199 -364 160z m-2 -54 c0 -44 -41 -81 -89 -81 -52 0 -62
17 -25 47 30 25 93 62 107 63 4 0 7 -13 7 -29z m269 -27 c23 -20 39 -40 35
-45 -3 -5 -22 -9 -43 -9 -53 0 -91 31 -91 75 0 33 1 34 29 24 16 -6 47 -26 70
-45z m-89 -99 c60 -57 58 -139 -6 -194 -29 -26 -43 -31 -85 -31 -61 0 -104 21
-129 63 -38 61 -18 139 43 178 49 31 137 23 177 -16z m-331 -110 c16 -8 31
-22 35 -30 10 -28 7 -70 -8 -90 -19 -26 -40 -8 -60 52 -28 82 -21 96 33 68z
m521 4 c0 -28 -23 -97 -41 -119 l-19 -25 -20 24 c-24 28 -25 59 -4 89 23 33
84 56 84 31z m-224 -204 c14 -14 22 -30 19 -35 -7 -12 -145 -13 -163 -1 -10 6
-6 15 18 35 42 35 92 35 126 1z"/>
<path d="M1855 601 c-46 -21 -69 -57 -68 -107 1 -49 25 -79 78 -99 58 -23 111
-9 150 37 23 27 26 39 22 75 -5 50 -28 80 -74 99 -42 18 -60 17 -108 -5z m75
-16 c0 -8 -7 -15 -15 -15 -8 0 -15 7 -15 15 0 8 7 15 15 15 8 0 15 -7 15 -15z
m-90 -61 c0 -17 -22 -14 -28 4 -2 7 3 12 12 12 9 0 16 -7 16 -16z m175 7 c7
-12 -12 -24 -25 -16 -11 7 -4 25 10 25 5 0 11 -4 15 -9z m-140 -91 c3 -6 -1
-13 -10 -16 -19 -8 -30 0 -20 15 8 14 22 14 30 1z m105 -5 c0 -8 -7 -15 -15
-15 -16 0 -20 12 -8 23 11 12 23 8 23 -8z"/>
<path d="M2952 966 c-145 -36 -270 -132 -339 -261 -139 -263 13 -576 326 -669
72 -21 220 -21 292 0 280 83 432 344 351 601 -77 246 -361 394 -630 329z m274
-190 c147 -68 222 -215 180 -359 -21 -72 -95 -155 -174 -194 -50 -24 -69 -28
-147 -28 -78 0 -97 4 -147 28 -69 34 -129 92 -160 155 -33 69 -32 178 4 247
45 85 129 151 225 175 57 14 161 2 219 -24z"/>
<path d="M3003 775 c-94 -26 -177 -95 -211 -174 -22 -53 -20 -156 5 -212 59
-132 230 -207 376 -165 145 42 245 192 216 325 -35 165 -220 273 -386 226z
m-3 -55 c0 -45 -39 -80 -89 -80 -52 0 -62 17 -25 48 23 19 98 61 112 62 1 0 2
-14 2 -30z m269 -26 c23 -20 39 -40 35 -45 -3 -5 -23 -9 -45 -9 -50 0 -89 35
-89 79 0 29 1 30 29 20 16 -6 47 -26 70 -45z m-104 -84 c35 -21 65 -73 65
-110 0 -71 -66 -130 -146 -130 -63 0 -104 25 -128 79 -16 35 -17 47 -7 80 6
22 27 53 46 70 30 26 44 31 87 31 33 0 62 -7 83 -20z m-316 -125 c40 -20 57
-65 39 -102 -7 -15 -20 -28 -28 -28 -19 0 -48 52 -56 103 -7 47 -1 51 45 27z
m521 -7 c0 -35 -48 -130 -62 -126 -7 3 -19 17 -26 32 -18 35 -1 80 37 101 37
20 51 18 51 -7z m-224 -191 c40 -35 24 -47 -61 -47 -85 0 -101 12 -61 47 36
30 86 30 122 0z"/>
<path d="M3034 606 c-97 -42 -99 -172 -4 -210 52 -21 65 -20 115 4 93 45 86
166 -11 206 -41 17 -60 17 -100 0z m66 -21 c0 -8 -7 -15 -15 -15 -8 0 -15 7
-15 15 0 8 7 15 15 15 8 0 15 -7 15 -15z m-90 -61 c0 -9 -5 -14 -12 -12 -18 6
-21 28 -4 28 9 0 16 -7 16 -16z m178 4 c-6 -18 -28 -21 -28 -4 0 9 7 16 16 16
9 0 14 -5 12 -12z m-148 -93 c0 -8 -4 -15 -9 -15 -13 0 -22 16 -14 24 11 11
23 6 23 -9z m115 5 c3 -6 -1 -13 -10 -16 -19 -8 -30 0 -20 15 8 14 22 14 30 1z"/>
<path d="M3975 960 c-13 -6 14 -8 75 -8 79 0 88 2 50 9 -58 10 -100 10 -125
-1z"/>
<path d="M136 788 c218 -155 237 -165 317 -178 97 -17 927 -6 938 12 14 22 -2
28 -77 28 -45 0 -74 4 -74 11 0 15 105 59 140 59 22 0 30 -5 31 -17 0 -15 2
-15 8 2 5 12 4 23 -3 27 -6 5 0 8 14 8 23 0 22 2 -20 45 l-44 45 37 0 c20 0
37 -4 37 -8 0 -5 7 -17 16 -28 14 -18 15 -18 4 4 -15 30 -4 41 15 16 13 -17
14 -17 9 -1 -4 10 -3 17 2 15 10 -3 54 24 54 33 0 10 -441 16 -485 7 -27 -6
-60 -26 -102 -63 -34 -30 -68 -55 -76 -55 -35 0 -146 42 -197 74 -53 34 -120
48 -120 26 0 -5 11 -10 25 -10 13 0 46 -13 72 -28 62 -36 117 -58 171 -67 23
-4 42 -10 42 -14 0 -4 -18 -24 -39 -45 -33 -32 -42 -36 -59 -27 -10 6 -22 8
-25 5 -10 -10 -111 25 -151 52 -30 21 -35 28 -25 36 11 7 9 8 -4 4 -16 -5 -91
44 -162 106 -6 6 24 7 70 4 69 -4 72 -4 25 4 -30 4 -154 8 -274 9 l-219 1 129
-92z m1258 3 l39 -39 -52 -11 c-63 -13 -231 -15 -231 -2 0 5 12 19 28 30 15
11 22 21 16 21 -5 0 -23 -13 -39 -30 -16 -16 -34 -30 -39 -30 -6 0 5 14 24 31
39 33 75 56 67 41 -4 -5 6 -9 22 -8 16 1 27 4 25 8 -3 4 12 10 33 13 21 4 43
8 48 10 17 6 19 5 59 -34z m-826 -69 c29 -19 50 -37 48 -40 -5 -5 -113 71
-161 113 -23 20 -19 19 15 -5 25 -18 69 -48 98 -68z m522 -27 c-7 -8 -8 -15
-3 -15 5 0 17 9 26 21 26 29 51 21 55 -19 3 -27 0 -32 -17 -32 -12 0 -21 6
-22 13 0 10 -2 10 -6 0 -2 -7 -19 -13 -36 -13 -25 0 -29 3 -17 11 12 8 12 12
2 16 -10 4 -9 9 4 24 20 22 33 17 14 -6z m140 8 c0 -18 -28 -53 -42 -53 -4 0
-8 16 -8 35 0 31 3 35 25 35 17 0 25 -6 25 -17z m50 8 c0 -5 -7 -12 -16 -15
-22 -9 -24 -8 -24 9 0 8 9 15 20 15 11 0 20 -4 20 -9z"/>
<path d="M3662 871 l-213 -6 36 -33 c25 -24 35 -29 35 -18 0 22 17 20 23 -1 4
-17 5 -17 6 0 1 14 11 17 57 17 49 0 55 -2 44 -15 -7 -9 -10 -18 -7 -21 3 -3
10 4 17 15 9 17 19 21 56 19 l45 -1 -38 -39 c-36 -37 -62 -51 -47 -25 6 8 3 8
-9 -1 -17 -15 -56 -8 -69 12 -6 8 -8 7 -8 -1 0 -7 -10 -14 -22 -14 -13 -1 11
-7 52 -14 l75 -12 -69 -2 c-38 0 -66 -4 -63 -7 3 -4 47 -6 96 -5 86 2 161 -15
161 -36 -1 -26 -22 -32 -115 -35 -81 -2 -100 -6 -100 -18 0 -32 916 -39 1000
-8 22 8 117 68 210 134 l170 119 -185 3 c-102 2 -240 -2 -308 -8 -112 -11
-128 -15 -172 -44 -27 -18 -67 -39 -89 -46 -40 -13 -41 -13 -86 26 -26 21 -58
45 -72 52 -31 17 -137 20 -411 13z m928 -7 c0 -17 -38 -32 -70 -28 -30 3 -31
2 -7 -4 l28 -7 -45 -37 c-30 -25 -51 -36 -63 -32 -14 5 -15 4 -4 -4 11 -8 4
-17 -33 -41 -79 -49 -99 -50 -151 -2 -24 22 -41 42 -37 44 4 3 25 10 46 17 22
7 63 26 90 43 58 33 63 35 234 55 6 1 12 -1 12 -4z m-460 -64 c25 -23 40 -40
34 -38 -6 2 -35 25 -65 52 -30 27 -45 44 -34 38 11 -6 40 -30 65 -52z m-217
-26 c62 -41 50 -47 -83 -42 -66 2 -123 7 -127 11 -3 4 10 25 31 46 l38 39 52
-15 c28 -8 68 -26 89 -39z m932 28 c-54 -48 -243 -177 -249 -171 -2 2 26 24
63 49 36 25 92 64 125 87 51 38 87 58 61 35z m-644 -79 c13 -16 12 -17 -3 -4
-10 7 -18 15 -18 17 0 8 8 3 21 -13z m-273 -12 c8 -4 13 -11 13 -15 -3 -23 0
-30 8 -17 5 8 7 20 4 28 -10 25 12 13 40 -21 28 -36 35 -52 16 -41 -5 4 -32 7
-60 7 -27 -1 -49 3 -49 8 0 5 -9 12 -20 15 -11 4 -18 11 -14 16 3 5 2 9 -3 8
-18 -3 -33 2 -33 11 0 12 80 13 98 1z m313 -28 c13 -16 12 -17 -3 -4 -17 13
-22 21 -14 21 2 0 10 -8 17 -17z m-381 -18 c10 -13 9 -15 -9 -15 -12 0 -21 6
-21 15 0 8 4 15 9 15 5 0 14 -7 21 -15z"/>
<path d="M4388 803 c6 -2 18 -2 25 0 6 3 1 5 -13 5 -14 0 -19 -2 -12 -5z"/>
<path d="M2300 845 c7 -8 21 -15 31 -15 10 0 19 -9 22 -22 l4 -23 2 23 c1 20
6 22 61 22 l60 0 0 -34 c0 -35 0 -35 -52 -39 -29 -2 3 -3 72 -3 69 0 106 1 83
3 -42 4 -43 5 -43 39 l0 34 74 0 c53 0 77 4 86 15 11 13 -12 15 -200 15 -188
0 -211 -2 -200 -15z m230 -50 c0 -28 -4 -35 -20 -35 -16 0 -20 7 -20 35 0 28
4 35 20 35 16 0 20 -7 20 -35z"/>
<path d="M468 833 c7 -3 16 -2 19 1 4 3 -2 6 -13 5 -11 0 -14 -3 -6 -6z"/>
<path d="M3704 798 l-19 -23 23 19 c21 18 27 26 19 26 -2 0 -12 -10 -23 -22z"/>
<path d="M588 803 c6 -2 18 -2 25 0 6 3 1 5 -13 5 -14 0 -19 -2 -12 -5z"/>
<path d="M568 783 c7 -3 16 -2 19 1 4 3 -2 6 -13 5 -11 0 -14 -3 -6 -6z"/>
<path d="M2394 723 c4 -4 25 -6 46 -4 40 3 40 2 40 -33 0 -32 -3 -36 -26 -36
-16 0 -24 -5 -21 -12 2 -9 25 -13 67 -13 42 0 65 4 68 13 2 7 -6 12 -22 12
-23 0 -26 4 -26 35 0 32 2 35 30 35 17 0 30 -5 30 -11 0 -5 5 -7 10 -4 29 18
0 25 -97 25 -58 0 -103 -3 -99 -7z m116 -38 c0 -19 -4 -35 -10 -35 -5 0 -10
16 -10 35 0 19 5 35 10 35 6 0 10 -16 10 -35z"/>
</g>
</svg>
